<svg xmlns="http://www.w3.org/2000/svg" width="200" height="200" viewBox="0 0 200 200" fill="none" stroke-linejoin="round" stroke-linecap="round">
  <g stroke="#1e3a8a" stroke-width="1.5">
    <path d="M0 154 Q46 154 46 200"/>
    <path d="M0 116 Q84 116 84 200"/>
    <path d="M0 72 Q128 72 128 200"/>
  </g>
  <g stroke="#3b82f6" stroke-width="1.2">
    <path d="M28 172 C48 160 60 148 66 128 C46 134 34 146 28 172 Z"/>
    <path d="M70 130 C86 122 94 114 98 100 C84 104 76 112 70 130 Z"/>
  </g>
  <g stroke="#1e3a8a" stroke-width="1.3">
    <rect x="86" y="72" width="42" height="42"/>
    <rect x="86" y="72" width="42" height="42" transform="rotate(45 107 93)"/>
  </g>
  <path d="M0 174 Q26 174 26 200" stroke="#d4af37" stroke-width="1.8" fill="none"/>
  <circle cx="26" cy="174" r="3" fill="#d4af37"/>
  <circle cx="107" cy="93" r="3" fill="#d4af37"/>
</svg>
